<svg version="1.1" xmlns="http://www.w3.org/2000/svg" viewBox="0 0 326.72576904296864 486.08319091796875" width="326.72576904296864" height="486.08319091796875" class="font-virgil">
  <!-- svg-source:excalidraw -->
  
  <defs>
    <style class="style-fonts">
      @font-face {
        font-family: "Virgil";
        src: url("../fonts/Virgil.woff2");
      }
      @font-face {
        font-family: "Cascadia";
        src: url("https://excalidraw.com/Cascadia.woff2");
      }
    </style>
  </defs>
  <rect x="0" y="0" width="326.72576904296864" height="486.08319091796875" fill="#ffffff"></rect><g stroke-linecap="round" transform="translate(10 10) rotate(0 153.36288452148432 233.04159545898438)"><path d="M32 0 M32 0 C84.79 -0.21, 140.9 0.14, 274.73 0 M32 0 C93.89 0.75, 155.25 -0.37, 274.73 0 M274.73 0 C297.76 0.64, 306.73 10.91, 306.73 32 M274.73 0 C295.36 -0.31, 307.38 12.93, 306.73 32 M306.73 32 C304.25 170.51, 305.77 310.13, 306.73 434.08 M306.73 32 C308.88 170.85, 308.23 310.15, 306.73 434.08 M306.73 434.08 C306.51 456.55, 296.79 466.61, 274.73 466.08 M306.73 434.08 C305.04 454.33, 295.81 467.04, 274.73 466.08 M274.73 466.08 C208.47 466.04, 143.45 467.47, 32 466.08 M274.73 466.08 C195.67 466.47, 116.73 466.51, 32 466.08 M32 466.08 C9.11 467.99, 1.8 453.91, 0 434.08 M32 466.08 C11.53 467.1, 1.15 456.79, 0 434.08 M0 434.08 C-1.5 304.91, 0.01 174.54, 0 32 M0 434.08 C1.06 349.2, 1.01 263.23, 0 32 M0 32 C0.21 10.64, 9.74 -0.04, 32 0 M0 32 C1.1 8.48, 10.64 1.41, 32 0" stroke="#000000" stroke-width="1" fill="none"></path></g><g transform="translate(126.49292969734017 27.92370549612957) rotate(0 35 12.5)"><text x="0" y="18" font-family="Virgil, Segoe UI Emoji" font-size="20px" fill="#000000" text-anchor="start" style="white-space: pre;" direction="ltr">Pull Up</text></g><g transform="translate(102.07455205202348 65.66084293236344) rotate(0 61.5 10)"><text x="0" y="14" font-family="Virgil, Segoe UI Emoji" font-size="16px" fill="#000000" text-anchor="start" style="white-space: pre;" direction="ltr">10:43am 1/5/23</text></g><g transform="translate(39.45649924724319 108.13077243285443) rotate(0 18.5 10)"><text x="0" y="14" font-family="Virgil, Segoe UI Emoji" font-size="16px" fill="#000000" text-anchor="start" style="white-space: pre;" direction="ltr">Reps</text></g><g transform="translate(38.54078464481063 151.11641787024115) rotate(0 19.499999999999943 10)"><text x="0" y="14" font-family="Virgil, Segoe UI Emoji" font-size="16px" fill="#000000" text-anchor="start" style="white-space: pre;" direction="ltr">Load</text></g><g transform="translate(37.78558714527878 196.00237555446478) rotate(0 16 10)"><text x="0" y="14" font-family="Virgil, Segoe UI Emoji" font-size="16px" fill="#000000" text-anchor="start" style="white-space: pre;" direction="ltr">Grip</text></g><g transform="translate(39.7103583350779 241.59012548086451) rotate(0 16.500000000000057 10)"><text x="0" y="14" font-family="Virgil, Segoe UI Emoji" font-size="16px" fill="#000000" text-anchor="start" style="white-space: pre;" direction="ltr">RPE</text></g><g stroke-linecap="round" transform="translate(88.05975415327214 104.55104053618447) rotate(0 13.211743519856327 13.40714964941887)"><path d="M6.61 0 M6.61 0 C12.01 0.01, 17.23 0.73, 19.82 0 M6.61 0 C8.76 -0.35, 11.49 -0.37, 19.82 0 M19.82 0 C22.28 -0.48, 27.26 0.97, 26.42 6.61 M19.82 0 C24.62 1.85, 24.52 0.32, 26.42 6.61 M26.42 6.61 C26.75 10.07, 27.8 16.39, 26.42 20.21 M26.42 6.61 C26.87 9.7, 26.94 14.5, 26.42 20.21 M26.42 20.21 C24.93 22.78, 24.08 28.55, 19.82 26.81 M26.42 20.21 C24.18 26.1, 26.21 26.16, 19.82 26.81 M19.82 26.81 C16.83 25.75, 14.15 26.13, 6.61 26.81 M19.82 26.81 C16.9 26.21, 13.62 26.51, 6.61 26.81 M6.61 26.81 C0.83 28.3, 1.1 25.09, 0 20.21 M6.61 26.81 C0.47 27.17, -0.5 22.92, 0 20.21 M0 20.21 C0.3 15.44, 0.88 10.62, 0 6.61 M0 20.21 C-0.02 16.21, -0.66 11.98, 0 6.61 M0 6.61 C0.56 2.58, 3.22 1.74, 6.61 0 M0 6.61 C-2.09 1.55, 0.13 0.86, 6.61 0" stroke="#000000" stroke-width="1" fill="none"></path></g><g stroke-linecap="round" transform="translate(90.38438892981378 147.32639894765254) rotate(0 56.65583532130381 12.5344275382339)"><path d="M6.27 0 M6.27 0 C38.98 -1.72, 69.9 -1.36, 107.04 0 M6.27 0 C46.34 0.65, 86.31 1.43, 107.04 0 M107.04 0 C112.47 -1.46, 111.77 0.97, 113.31 6.27 M107.04 0 C112.69 0.94, 111.67 0.48, 113.31 6.27 M113.31 6.27 C113.29 10.79, 112.98 13.76, 113.31 18.8 M113.31 6.27 C113.22 10.9, 112.97 15.1, 113.31 18.8 M113.31 18.8 C115.24 24.97, 112.04 26.92, 107.04 25.07 M113.31 18.8 C113.59 24.05, 112.44 25.47, 107.04 25.07 M107.04 25.07 C70.99 24.89, 31.43 27.56, 6.27 25.07 M107.04 25.07 C81.22 26.36, 55.42 26.52, 6.27 25.07 M6.27 25.07 C1.15 23.16, 0.6 23.52, 0 18.8 M6.27 25.07 C1.24 27.1, -1.56 21.86, 0 18.8 M0 18.8 C1.03 14.95, -1.04 10.67, 0 6.27 M0 18.8 C-0.16 15.03, -0.3 10.79, 0 6.27 M0 6.27 C0.53 0.58, 1.33 0.88, 6.27 0 M0 6.27 C-0.5 3.62, 0.48 -1.74, 6.27 0" stroke="#000000" stroke-width="1" fill="none"></path></g><g stroke-linecap="round" transform="translate(88.9982654430031 192.25673326736887) rotate(0 56.65583532130381 12.5344275382339)"><path d="M6.27 0 M6.27 0 C29.75 -1.82, 51.05 1.28, 107.04 0 M6.27 0 C43.36 1.03, 80.02 0.6, 107.04 0 M107.04 0 C111.56 1.29, 114.97 3.97, 113.31 6.27 M107.04 0 C109.61 -2.2, 111.18 4.24, 113.31 6.27 M113.31 6.27 C113.34 9.69, 113.88 12.04, 113.31 18.8 M113.31 6.27 C112.63 9.34, 113.39 13.65, 113.31 18.8 M113.31 18.8 C112.12 22.07, 111.21 25.92, 107.04 25.07 M113.31 18.8 C113.67 21.65, 111.69 23.38, 107.04 25.07 M107.04 25.07 C72.38 24.69, 42.05 23.76, 6.27 25.07 M107.04 25.07 C78.49 24.38, 49.86 24.4, 6.27 25.07 M6.27 25.07 C2.7 25.85, 0.99 24.88, 0 18.8 M6.27 25.07 C2.39 22.82, 2.21 21.73, 0 18.8 M0 18.8 C0.17 13.7, 0.66 11.24, 0 6.27 M0 18.8 C-0.08 14.11, -0.26 10.62, 0 6.27 M0 6.27 C0.46 1.4, 0.56 1.04, 6.27 0 M0 6.27 C1.24 3.24, 1.97 -0.13, 6.27 0" stroke="#000000" stroke-width="1" fill="none"></path></g><g stroke-linecap="round" transform="translate(89.57751115769167 237.37599992454852) rotate(0 13.62941895049778 12.10709901721188)"><path d="M6.05 0 M6.05 0 C12.92 0.33, 18.56 0.93, 21.21 0 M6.05 0 C11.89 0.46, 16.38 -0.65, 21.21 0 M21.21 0 C24.69 1.3, 26.6 2.79, 27.26 6.05 M21.21 0 C25.23 0.94, 25.89 1.71, 27.26 6.05 M27.26 6.05 C26.56 10.58, 28.27 12.96, 27.26 18.16 M27.26 6.05 C27.29 10.72, 27.42 15.47, 27.26 18.16 M27.26 18.16 C28.89 20.87, 24.9 25.62, 21.21 24.21 M27.26 18.16 C25.08 23.85, 24.7 23.13, 21.21 24.21 M21.21 24.21 C17.05 23.24, 12.16 25.1, 6.05 24.21 M21.21 24.21 C17.07 24.12, 12.32 25.04, 6.05 24.21 M6.05 24.21 C3.44 23.66, -1.02 22.53, 0 18.16 M6.05 24.21 C1.26 22.97, -0.65 22.47, 0 18.16 M0 18.16 C0.76 15.29, -0.31 12.21, 0 6.05 M0 18.16 C-0.28 15.15, 0.05 12.14, 0 6.05 M0 6.05 C1.56 0.82, 0.63 0.29, 6.05 0 M0 6.05 C1.52 4.09, -0.02 -0.17, 6.05 0" stroke="#000000" stroke-width="1" fill="none"></path></g><g transform="translate(95.0323192365023 108.44738879442122) rotate(0 6.5 10)"><text x="0" y="14" font-family="Virgil, Segoe UI Emoji" font-size="16px" fill="#000000" text-anchor="start" style="white-space: pre;" direction="ltr">8</text></g><g transform="translate(106.66589280015626 149.9132915772107) rotate(0 41 10)"><text x="0" y="14" font-family="Virgil, Segoe UI Emoji" font-size="16px" fill="#000000" text-anchor="start" style="white-space: pre;" direction="ltr">bodyweight</text></g><g transform="translate(105.27976931334558 194.84362589692705) rotate(0 36.5 10)"><text x="0" y="14" font-family="Virgil, Segoe UI Emoji" font-size="16px" fill="#000000" text-anchor="start" style="white-space: pre;" direction="ltr">standard</text></g><g transform="translate(99.83948820520698 240.9628925541067) rotate(0 5 10)"><text x="0" y="14" font-family="Virgil, Segoe UI Emoji" font-size="16px" fill="#000000" text-anchor="start" style="white-space: pre;" direction="ltr">7</text></g></svg>